{
	"asset":{
		"generator":"Khronos glTF Blender I/O v4.4.55",
		"version":"2.0"
	},
	"scene":0,
	"scenes":[
		{
			"name":"Scene",
			"nodes":[
				0
			]
		}
	],
	"nodes":[
		{
			"mesh":0,
			"name":"Cube"
		}
	],
	"materials":[
		{
			"doubleSided":true,
			"name":"Material",
			"pbrMetallicRoughness":{
				"baseColorFactor":[
					0.800000011920929,
					0.800000011920929,
					0.800000011920929,
					1
				],
				"metallicFactor":0,
				"roughnessFactor":0.5
			}
		},
		{
			"doubleSided":true,
			"name":"Material.001",
			"pbrMetallicRoughness":{
				"baseColorFactor":[
					0.05712500214576721,
					0.8001565933227539,
					0.06673964858055115,
					1
				],
				"metallicFactor":0,
				"roughnessFactor":0.5
			}
		},
		{
			"doubleSided":true,
			"name":"Material.002",
			"pbrMetallicRoughness":{
				"baseColorFactor":[
					0.800133466720581,
					0.04789059981703758,
					0.014645935967564583,
					1
				],
				"metallicFactor":0,
				"roughnessFactor":0.5
			}
		}
	],
	"meshes":[
		{
			"name":"Cube",
			"primitives":[
				{
					"attributes":{
						"POSITION":0,
						"NORMAL":1,
						"TEXCOORD_0":2
					},
					"indices":3,
					"material":0
				},
				{
					"attributes":{
						"POSITION":4,
						"NORMAL":5,
						"TEXCOORD_0":6
					},
					"indices":7,
					"material":1
				},
				{
					"attributes":{
						"POSITION":8,
						"NORMAL":9,
						"TEXCOORD_0":10
					},
					"indices":11,
					"material":2
				}
			]
		}
	],
	"accessors":[
		{
			"bufferView":0,
			"componentType":5126,
			"count":40,
			"max":[
				1.1320044994354248,
				2.132004499435425,
				1.1320044994354248
			],
			"min":[
				-1.1320044994354248,
				0,
				-1.1320044994354248
			],
			"type":"VEC3"
		},
		{
			"bufferView":1,
			"componentType":5126,
			"count":40,
			"type":"VEC3"
		},
		{
			"bufferView":2,
			"componentType":5126,
			"count":40,
			"type":"VEC2"
		},
		{
			"bufferView":3,
			"componentType":5123,
			"count":60,
			"type":"SCALAR"
		},
		{
			"bufferView":4,
			"componentType":5126,
			"count":161,
			"max":[
				1.1320044994354248,
				2.132004499435425,
				1.1320044994354248
			],
			"min":[
				-1.1320044994354248,
				-0.1320044994354248,
				-1.1320044994354248
			],
			"type":"VEC3"
		},
		{
			"bufferView":5,
			"componentType":5126,
			"count":161,
			"type":"VEC3"
		},
		{
			"bufferView":6,
			"componentType":5126,
			"count":161,
			"type":"VEC2"
		},
		{
			"bufferView":7,
			"componentType":5123,
			"count":696,
			"type":"SCALAR"
		},
		{
			"bufferView":8,
			"componentType":5126,
			"count":16,
			"max":[
				1.1320044994354248,
				2.132004499435425,
				1.1320044994354248
			],
			"min":[
				-1.1320044994354248,
				1.7546696662902832,
				-1.1320044994354248
			],
			"type":"VEC3"
		},
		{
			"bufferView":9,
			"componentType":5126,
			"count":16,
			"type":"VEC3"
		},
		{
			"bufferView":10,
			"componentType":5126,
			"count":16,
			"type":"VEC2"
		},
		{
			"bufferView":11,
			"componentType":5123,
			"count":24,
			"type":"SCALAR"
		}
	],
	"bufferViews":[
		{
			"buffer":0,
			"byteLength":480,
			"byteOffset":0,
			"target":34962
		},
		{
			"buffer":0,
			"byteLength":480,
			"byteOffset":480,
			"target":34962
		},
		{
			"buffer":0,
			"byteLength":320,
			"byteOffset":960,
			"target":34962
		},
		{
			"buffer":0,
			"byteLength":120,
			"byteOffset":1280,
			"target":34963
		},
		{
			"buffer":0,
			"byteLength":1932,
			"byteOffset":1400,
			"target":34962
		},
		{
			"buffer":0,
			"byteLength":1932,
			"byteOffset":3332,
			"target":34962
		},
		{
			"buffer":0,
			"byteLength":1288,
			"byteOffset":5264,
			"target":34962
		},
		{
			"buffer":0,
			"byteLength":1392,
			"byteOffset":6552,
			"target":34963
		},
		{
			"buffer":0,
			"byteLength":192,
			"byteOffset":7944,
			"target":34962
		},
		{
			"buffer":0,
			"byteLength":192,
			"byteOffset":8136,
			"target":34962
		},
		{
			"buffer":0,
			"byteLength":128,
			"byteOffset":8328,
			"target":34962
		},
		{
			"buffer":0,
			"byteLength":48,
			"byteOffset":8456,
			"target":34963
		}
	],
	"buffers":[
		{
			"byteLength":8504,
			"uri":"materialslabgeo.bin"
		}
	]
}
